# Blender 3.5.0
# www.blender.org
mtllib player_Body2.mtl
o 円柱.001
v -0.431557 0.487147 -1.430904
v -0.431557 3.046642 -1.430904
v -0.181890 0.487147 -1.406314
v -0.181890 3.046642 -1.406314
v 0.058182 0.487147 -1.333489
v 0.058182 3.046642 -1.333489
v 0.279433 0.487147 -1.215228
v 0.279433 3.046642 -1.215228
v 0.473362 0.487147 -1.056075
v 0.473362 3.046642 -1.056075
v 0.632515 0.487147 -0.862146
v 0.632515 3.046642 -0.862146
v 0.750776 0.487147 -0.640895
v 0.750776 3.046642 -0.640895
v 0.823601 0.487147 -0.400823
v 0.823601 3.046642 -0.400823
v 0.848191 0.487147 -0.151157
v 0.848191 3.046642 -0.151157
v 0.823601 0.487147 0.098510
v 0.823601 3.046642 0.098510
v 0.750776 0.487147 0.338581
v 0.750776 3.046642 0.338581
v 0.632515 0.487147 0.559833
v 0.632515 3.046642 0.559833
v 0.473362 0.487147 0.753761
v 0.473362 3.046642 0.753761
v 0.279433 0.487147 0.912914
v 0.279433 3.046642 0.912914
v 0.058182 0.487147 1.031176
v 0.058182 3.046642 1.031176
v -0.181890 0.487147 1.104001
v -0.181890 3.046642 1.104001
v -0.431557 0.487147 1.128591
v -0.431557 3.046642 1.128591
v -0.681223 0.487147 1.104001
v -0.681223 3.046642 1.104001
v -0.921295 0.487147 1.031176
v -0.921295 3.046642 1.031176
v -1.142546 0.487147 0.912914
v -1.142546 3.046642 0.912914
v -1.336475 0.487147 0.753761
v -1.336475 3.046642 0.753761
v -1.495628 0.487147 0.559833
v -1.495628 3.046642 0.559833
v -1.613889 0.487147 0.338581
v -1.613889 3.046642 0.338581
v -1.686714 0.487147 0.098510
v -1.686714 3.046642 0.098510
v -1.711304 0.487147 -0.151157
v -1.711304 3.046642 -0.151157
v -1.686714 0.487147 -0.400823
v -1.686714 3.046642 -0.400823
v -1.613889 0.487147 -0.640895
v -1.613889 3.046642 -0.640895
v -1.495628 0.487147 -0.862146
v -1.495628 3.046642 -0.862146
v -1.336475 0.487147 -1.056075
v -1.336475 3.046642 -1.056075
v -1.142546 0.487147 -1.215228
v -1.142546 3.046642 -1.215228
v -0.921295 0.487147 -1.333489
v -0.921295 3.046642 -1.333489
v -0.681223 0.487147 -1.406314
v -0.681223 3.046642 -1.406314
vn 0.0980 -0.0000 -0.9952
vn 0.2903 -0.0000 -0.9569
vn 0.4714 -0.0000 -0.8819
vn 0.6344 -0.0000 -0.7730
vn 0.7730 -0.0000 -0.6344
vn 0.8819 -0.0000 -0.4714
vn 0.9569 -0.0000 -0.2903
vn 0.9952 -0.0000 -0.0980
vn 0.9952 -0.0000 0.0980
vn 0.9569 -0.0000 0.2903
vn 0.8819 -0.0000 0.4714
vn 0.7730 -0.0000 0.6344
vn 0.6344 -0.0000 0.7730
vn 0.4714 -0.0000 0.8819
vn 0.2903 -0.0000 0.9569
vn 0.0980 -0.0000 0.9952
vn -0.0980 -0.0000 0.9952
vn -0.2903 -0.0000 0.9569
vn -0.4714 -0.0000 0.8819
vn -0.6344 -0.0000 0.7730
vn -0.7730 -0.0000 0.6344
vn -0.8819 -0.0000 0.4714
vn -0.9569 -0.0000 0.2903
vn -0.9952 -0.0000 0.0980
vn -0.9952 -0.0000 -0.0980
vn -0.9569 -0.0000 -0.2903
vn -0.8819 -0.0000 -0.4714
vn -0.7730 -0.0000 -0.6344
vn -0.6344 -0.0000 -0.7730
vn -0.4714 -0.0000 -0.8819
vn -0.0000 1.0000 -0.0000
vn -0.2903 -0.0000 -0.9569
vn -0.0980 -0.0000 -0.9952
vn -0.0000 -1.0000 -0.0000
vt 0.238105 0.427880
vt 0.028433 0.092827
vt 0.028433 0.306620
vt 0.238105 0.571429
vt 0.129449 0.627603
vt 0.228156 0.427880
vt 0.031178 0.079027
vt 0.228156 0.571429
vt 0.129449 0.771153
vt 0.031178 0.320420
vt 0.119499 0.627603
vt 0.036562 0.066027
vt 0.119499 0.771153
vt 0.036562 0.333420
vt 0.107800 0.627603
vt 0.044379 0.054328
vt 0.107800 0.771153
vt 0.044379 0.345119
vt 0.094801 0.627603
vt 0.054328 0.044379
vt 0.094801 0.771153
vt 0.054328 0.355068
vt 0.081001 0.627603
vt 0.066027 0.036562
vt 0.081001 0.771153
vt 0.066027 0.362885
vt 0.066931 0.627603
vt 0.079027 0.031178
vt 0.066931 0.771153
vt 0.079027 0.368269
vt 0.053131 0.627603
vt 0.092827 0.028433
vt 0.053131 0.771153
vt 0.092827 0.371014
vt 0.040132 0.627603
vt 0.106897 0.028433
vt 0.040132 0.771153
vt 0.106897 0.371014
vt 0.119499 0.828018
vt 0.028433 0.627603
vt 0.120697 0.031178
vt 0.028433 0.771153
vt 0.119499 0.971567
vt 0.120697 0.368269
vt 0.107800 0.828018
vt 0.133696 0.036562
vt 0.107800 0.971567
vt 0.133696 0.362885
vt 0.094801 0.828018
vt 0.145395 0.044379
vt 0.094801 0.971567
vt 0.145395 0.355068
vt 0.081001 0.828018
vt 0.155344 0.054328
vt 0.081001 0.971567
vt 0.155344 0.345119
vt 0.066931 0.828018
vt 0.163161 0.066027
vt 0.066931 0.971567
vt 0.163161 0.333420
vt 0.053131 0.828018
vt 0.168546 0.079027
vt 0.053131 0.971567
vt 0.168546 0.320420
vt 0.040132 0.828018
vt 0.171291 0.092827
vt 0.040132 0.971567
vt 0.171291 0.306620
vt 0.528896 0.628986
vt 0.028433 0.828018
vt 0.171291 0.106897
vt 0.028433 0.971567
vt 0.528896 0.772535
vt 0.171291 0.292550
vt 0.517197 0.628986
vt 0.168546 0.120697
vt 0.517197 0.772535
vt 0.168546 0.278750
vt 0.504197 0.628986
vt 0.163161 0.133696
vt 0.504197 0.772535
vt 0.163161 0.265751
vt 0.490397 0.628986
vt 0.155344 0.145395
vt 0.490397 0.772535
vt 0.155344 0.254052
vt 0.476327 0.628986
vt 0.145395 0.155344
vt 0.476327 0.772535
vt 0.145395 0.244103
vt 0.462527 0.628986
vt 0.133696 0.163161
vt 0.462527 0.772535
vt 0.133696 0.236286
vt 0.449528 0.628986
vt 0.120697 0.168546
vt 0.449528 0.772535
vt 0.120697 0.230901
vt 0.437829 0.628986
vt 0.106897 0.171291
vt 0.437829 0.772535
vt 0.106897 0.228156
vt 0.339121 0.427880
vt 0.427880 0.628986
vt 0.092827 0.171291
vt 0.427880 0.772535
vt 0.339121 0.571429
vt 0.092827 0.228156
vt 0.329172 0.427880
vt 0.079027 0.168546
vt 0.329172 0.571429
vt 0.079027 0.230901
vt 0.317473 0.427880
vt 0.066027 0.163161
vt 0.317473 0.571429
vt 0.066027 0.236286
vt 0.304474 0.427880
vt 0.054328 0.155344
vt 0.304474 0.571429
vt 0.054328 0.244103
vt 0.290674 0.427880
vt 0.044379 0.145395
vt 0.290674 0.571429
vt 0.044379 0.254052
vt 0.276604 0.427880
vt 0.036562 0.133696
vt 0.276604 0.571429
vt 0.036562 0.265751
vt 0.262804 0.427880
vt 0.031178 0.120697
vt 0.031178 0.278750
vt 0.262804 0.571429
vt 0.249804 0.427880
vt 0.028433 0.106897
vt 0.028433 0.292550
vt 0.249804 0.571429
s 0
usemtl マテリアル.002
f 2/4/1 3/6/1 1/1/1
f 4/9/2 5/11/2 3/5/2
f 6/13/3 7/15/3 5/11/3
f 8/17/4 9/19/4 7/15/4
f 10/21/5 11/23/5 9/19/5
f 12/25/6 13/27/6 11/23/6
f 14/29/7 15/31/7 13/27/7
f 16/33/8 17/35/8 15/31/8
f 18/37/9 19/40/9 17/35/9
f 20/43/10 21/45/10 19/39/10
f 22/47/11 23/49/11 21/45/11
f 24/51/12 25/53/12 23/49/12
f 26/55/13 27/57/13 25/53/13
f 28/59/14 29/61/14 27/57/14
f 30/63/15 31/65/15 29/61/15
f 32/67/16 33/70/16 31/65/16
f 34/73/17 35/75/17 33/69/17
f 36/77/18 37/79/18 35/75/18
f 38/81/19 39/83/19 37/79/19
f 40/85/20 41/87/20 39/83/20
f 42/89/21 43/91/21 41/87/21
f 44/93/22 45/95/22 43/91/22
f 46/97/23 47/99/23 45/95/23
f 48/101/24 49/104/24 47/99/24
f 50/107/25 51/109/25 49/103/25
f 52/111/26 53/113/26 51/109/26
f 54/115/27 55/117/27 53/113/27
f 56/119/28 57/121/28 55/117/28
f 58/123/29 59/125/29 57/121/29
f 60/127/30 61/129/30 59/125/30
f 38/82/31 22/48/31 6/14/31
f 62/132/32 63/133/32 61/129/32
f 64/136/33 1/1/33 63/133/33
f 31/66/34 47/100/34 63/134/34
f 2/4/1 4/8/1 3/6/1
f 4/9/2 6/13/2 5/11/2
f 6/13/3 8/17/3 7/15/3
f 8/17/4 10/21/4 9/19/4
f 10/21/5 12/25/5 11/23/5
f 12/25/6 14/29/6 13/27/6
f 14/29/7 16/33/7 15/31/7
f 16/33/8 18/37/8 17/35/8
f 18/37/9 20/42/9 19/40/9
f 20/43/10 22/47/10 21/45/10
f 22/47/11 24/51/11 23/49/11
f 24/51/12 26/55/12 25/53/12
f 26/55/13 28/59/13 27/57/13
f 28/59/14 30/63/14 29/61/14
f 30/63/15 32/67/15 31/65/15
f 32/67/16 34/72/16 33/70/16
f 34/73/17 36/77/17 35/75/17
f 36/77/18 38/81/18 37/79/18
f 38/81/19 40/85/19 39/83/19
f 40/85/20 42/89/20 41/87/20
f 42/89/21 44/93/21 43/91/21
f 44/93/22 46/97/22 45/95/22
f 46/97/23 48/101/23 47/99/23
f 48/101/24 50/106/24 49/104/24
f 50/107/25 52/111/25 51/109/25
f 52/111/26 54/115/26 53/113/26
f 54/115/27 56/119/27 55/117/27
f 56/119/28 58/123/28 57/121/28
f 58/123/29 60/127/29 59/125/29
f 60/127/30 62/132/30 61/129/30
f 6/14/31 4/10/31 62/131/31
f 4/10/31 2/3/31 62/131/31
f 2/3/31 64/135/31 62/131/31
f 62/131/31 60/128/31 58/124/31
f 58/124/31 56/120/31 54/116/31
f 54/116/31 52/112/31 46/98/31
f 52/112/31 50/108/31 46/98/31
f 50/108/31 48/102/31 46/98/31
f 46/98/31 44/94/31 42/90/31
f 42/90/31 40/86/31 38/82/31
f 38/82/31 36/78/31 34/74/31
f 34/74/31 32/68/31 38/82/31
f 32/68/31 30/64/31 38/82/31
f 30/64/31 28/60/31 26/56/31
f 26/56/31 24/52/31 22/48/31
f 22/48/31 20/44/31 18/38/31
f 18/38/31 16/34/31 22/48/31
f 16/34/31 14/30/31 22/48/31
f 14/30/31 12/26/31 10/22/31
f 10/22/31 8/18/31 6/14/31
f 62/131/31 58/124/31 6/14/31
f 58/124/31 54/116/31 6/14/31
f 46/98/31 42/90/31 54/116/31
f 42/90/31 38/82/31 54/116/31
f 30/64/31 26/56/31 38/82/31
f 26/56/31 22/48/31 38/82/31
f 14/30/31 10/22/31 22/48/31
f 10/22/31 6/14/31 22/48/31
f 6/14/31 54/116/31 38/82/31
f 62/132/32 64/136/32 63/133/32
f 64/136/33 2/4/33 1/1/33
f 63/134/34 1/2/34 7/16/34
f 1/2/34 3/7/34 7/16/34
f 3/7/34 5/12/34 7/16/34
f 7/16/34 9/20/34 15/32/34
f 9/20/34 11/24/34 15/32/34
f 11/24/34 13/28/34 15/32/34
f 15/32/34 17/36/34 19/41/34
f 19/41/34 21/46/34 23/50/34
f 23/50/34 25/54/34 31/66/34
f 25/54/34 27/58/34 31/66/34
f 27/58/34 29/62/34 31/66/34
f 31/66/34 33/71/34 39/84/34
f 33/71/34 35/76/34 39/84/34
f 35/76/34 37/80/34 39/84/34
f 39/84/34 41/88/34 47/100/34
f 41/88/34 43/92/34 47/100/34
f 43/92/34 45/96/34 47/100/34
f 47/100/34 49/105/34 51/110/34
f 51/110/34 53/114/34 55/118/34
f 55/118/34 57/122/34 63/134/34
f 57/122/34 59/126/34 63/134/34
f 59/126/34 61/130/34 63/134/34
f 15/32/34 19/41/34 23/50/34
f 47/100/34 51/110/34 55/118/34
f 63/134/34 7/16/34 15/32/34
f 15/32/34 23/50/34 31/66/34
f 31/66/34 39/84/34 47/100/34
f 47/100/34 55/118/34 63/134/34
f 63/134/34 15/32/34 31/66/34
